<svg id="Layer_2" data-name="Layer 2" xmlns="http://www.w3.org/2000/svg" viewBox="0 0 299.91 328.41"><defs><style>.cls-1{fill:#ff5a24;}</style></defs><title>Phoenix_logo_doar_doar_pasarea</title><path class="cls-1" d="M412,291l135.08-78a149.59,149.59,0,0,0-1.86-16.1l-148.09,85.5-148.1-85.5a149.59,149.59,0,0,0-1.86,16.1l135.08,78L334,318.92a62.65,62.65,0,0,0-.39,6.89,63.86,63.86,0,0,0,.8,10l62.77-36.24,62.76,36.24a63.86,63.86,0,0,0,.8-10,62.65,62.65,0,0,0-.39-6.89Z" transform="translate(-247.21 -98.65)"/><path class="cls-1" d="M397.17,389.38h0l-25-58.17-33.57,19.38A64.12,64.12,0,0,0,346,363.51l19.13-11.05,32.05,74.6,26.13-60.83-13-7.49Z" transform="translate(-247.21 -98.65)"/><path class="cls-1" d="M409.85,324.12h0a11.84,11.84,0,0,0-.44-2.24l0-.15a13.74,13.74,0,0,0-.79-2l-.11-.22a12.91,12.91,0,0,0-1.09-1.73l-.18-.23a12,12,0,0,0-1.36-1.49l-.23-.21a12.67,12.67,0,0,0-1.6-1.21,2.26,2.26,0,0,0-.26-.16,13.1,13.1,0,0,0-1.83-.93l-.24-.09a12.83,12.83,0,0,0-2.06-.59l-.17,0a13.27,13.27,0,0,0-2.29-.22,12.75,12.75,0,1,0,0,25.5,12.26,12.26,0,0,0,1.36-.07l.18,0c.4,0,.78-.11,1.16-.19l.09,0a12.82,12.82,0,0,0,2.45-.82l45.93,26.51a63.65,63.65,0,0,0,7.38-12.92Z" transform="translate(-247.21 -98.65)"/><path class="cls-1" d="M541.84,181.74A146.37,146.37,0,0,0,537,167.35L397.17,248.09,257.32,167.35a146.37,146.37,0,0,0-4.83,14.39l144.68,83.53Z" transform="translate(-247.21 -98.65)"/><path class="cls-1" d="M391.36,184.46l15.95-4-5.66,9.41L421,217.14l97.85-56.49h0l12-6.91v0h0q-3.4-6.65-7.44-12.88l0,0q-4.07-6.29-8.72-12.12l27.2-15.7A147.26,147.26,0,0,0,537,98.65L504.6,117.37l-12.39,7.15a138.78,138.78,0,0,1,10.35,11.2,136,136,0,0,1,8.84,12.05l-86.11,49.71-5.88-8.3,19.27-32-76.4,19.28,25.61,14.79Z" transform="translate(-247.21 -98.65)"/><path class="cls-1" d="M271,140.89l0,0a148.06,148.06,0,0,0-7.45,12.88l121,69.82c0,.17.07.32.1.49a12.08,12.08,0,0,0,.28,1.48c.05.19.09.37.15.56a13.12,13.12,0,0,0,.72,1.83c.05.09.08.18.13.26a12.31,12.31,0,0,0,1.16,1.86h0a12.76,12.76,0,1,0,4.9-19.33l-109-62.92a136.66,136.66,0,0,1,8.86-12.08,138.9,138.9,0,0,1,10.36-11.2L257.32,98.65A147.26,147.26,0,0,0,252.49,113l27.2,15.7A149.46,149.46,0,0,0,271,140.89" transform="translate(-247.21 -98.65)"/></svg>